<!-- colors: #505C78 #9E79FC #ee689f #0091FF -->
<svg t="1752647513545" class="icon" viewBox="0 0 1024 1024" version="1.1" xmlns="http://www.w3.org/2000/svg" p-id="6419" width="200" height="200"><path d="M524.764975 2.451016l5.313459 2.047387 461.149713 210.880937a47.284907 47.284907 0 0 1 31.052047 49.868515 48.601085 48.601085 0 0 1-44.262573 42.020196l-5.313458 0.097495h-48.064865v614.21632h47.918623c28.27345 0 51.184693 22.911244 51.135946 51.233441V1024H1.413672v-51.184693a51.184693 51.184693 0 0 1 51.087199-51.184694h45.335014V307.414293H48.942316A48.162359 48.162359 0 0 1 9.749465 289.036551l-3.217323-4.679743A47.674886 47.674886 0 0 1 22.42377 219.864094l5.069722-2.681103L491.860529 4.498403a45.237519 45.237519 0 0 1 32.855699-2.047387z m123.330737 243.541645l-25.34861 22.667507-25.202368-22.667507-264.844227 259.823253-25.202368-22.716254-73.120991 70.586129 171.493097 166.472122 73.12099-70.537382-25.153621-22.765002 116.018639-113.532525c32.758204 37.876673 45.383761 75.704599 37.827925 118.5535-7.507088 45.481256-32.855698 90.81627-75.704599 133.713918h-189.139628c-58.009319 0-103.441828 45.432509-103.441828 100.906966h549.918596c0-55.474458-45.335014-100.906967-103.441828-100.906966h-25.153621c22.667507-35.293065 40.362787-75.655851 47.918622-116.018639l2.486114-7.507088c12.625558-73.218485-12.57681-141.367248-65.565155-201.813934l78.190713-75.704599-25.202368-22.716254 25.202368-22.716254a35.098075 35.098075 0 0 0 0-47.96737l-27.785977-25.153621a35.098075 35.098075 0 0 0-47.918622 0z" fill="#9E79FC" p-id="6420"></path></svg>