<svg t="1752721725218" class="icon" viewBox="0 0 1024 1024" version="1.1" xmlns="http://www.w3.org/2000/svg" p-id="8486" width="200" height="200"><path d="M512 448a64 64 0 1 0 0-128 64 64 0 0 0 0 128z" fill="#707070" p-id="8487"></path><path d="M128 366.933333a170.666667 170.666667 0 0 1 101.333333-155.989333l213.333334-94.805333a170.666667 170.666667 0 0 1 138.666666 0l213.333334 94.805333A170.666667 170.666667 0 0 1 896 366.933333V554.666667a384 384 0 0 1-768 0V366.933333z m384 145.066667a128 128 0 1 0 0-256 128 128 0 0 0 0 256z m-181.333333 298.666667a181.333333 181.333333 0 0 1 362.666666 0 32 32 0 0 0 64 0 245.333333 245.333333 0 0 0-490.666666 0 32 32 0 0 0 64 0z" fill="#707070" p-id="8488"></path></svg>